<svg version="1.1" id="Layer_1" xmlns="http://www.w3.org/2000/svg" xmlns:xlink="http://www.w3.org/1999/xlink" x="0px" y="0px"
	 width="100%" viewBox="0 0 512 512" enable-background="new 0 0 512 512" xml:space="preserve">
<path fill="#000000" opacity="1.000000" stroke="none" 
	d="
M120.000000,1.000000 
	C132.687561,1.000000 145.375122,1.000000 158.783463,1.326012 
	C164.401184,2.294848 169.416229,2.469108 174.173035,3.667982 
	C188.686325,7.325818 203.247192,10.909297 217.519318,15.383616 
	C240.768082,22.672117 264.089935,23.778585 287.687775,17.883404 
	C302.213226,14.254674 316.611938,10.118057 331.140045,6.500636 
	C339.686676,4.372574 348.375275,2.814458 357.000000,1.000000 
	C370.020905,1.000000 383.041779,1.000000 396.592529,1.389129 
	C397.597046,2.152298 398.030792,2.778766 398.552399,2.863343 
	C410.533569,4.806069 421.939941,8.658156 432.552246,14.387881 
	C440.645386,18.757481 448.176727,24.167692 456.115875,29.406284 
	C462.144257,35.479137 468.014740,41.260670 474.030945,47.330891 
	C475.212860,48.947426 476.249115,50.275272 477.281494,51.635315 
	C477.277557,51.667507 477.342346,51.664463 477.529053,51.954544 
	C477.901154,52.706196 478.000885,53.229965 478.284241,53.620457 
	C499.594818,82.985168 506.763367,115.800079 500.803162,151.259201 
	C496.394196,177.489487 484.866058,200.522995 465.332733,218.972992 
	C460.962006,223.101303 459.302032,227.758011 459.021271,233.312119 
	C458.318878,247.207458 457.950958,261.125854 456.936707,274.997559 
	C455.926086,288.820587 455.043060,302.723328 452.766571,316.367950 
	C448.704010,340.717926 444.228363,365.032837 438.835724,389.118439 
	C432.191284,418.794983 423.334381,447.863251 408.974274,474.889618 
	C400.365906,491.090942 390.353973,506.150757 372.000000,513.000000 
	C367.310760,513.000000 362.621490,513.000000 357.275330,512.698608 
	C351.795197,509.053680 345.619568,506.659943 342.454132,502.152344 
	C337.227448,494.709259 332.620544,486.287628 330.085205,477.597778 
	C321.826752,449.292175 314.731445,420.649261 306.978973,392.193268 
	C301.547028,372.255035 295.608246,352.411438 282.798828,335.684906 
	C271.131256,320.449371 254.718674,316.342194 239.477905,327.373505 
	C231.120514,333.422607 225.172043,342.038696 221.561020,351.422485 
	C215.001190,368.469208 209.192917,385.858948 204.104874,403.405334 
	C196.947937,428.086395 191.281387,453.204834 183.910858,477.816803 
	C179.494583,492.563843 173.087418,506.734833 157.000000,513.000000 
	C152.310745,513.000000 147.621490,513.000000 142.269470,512.695801 
	C132.515518,509.732452 125.419899,503.997375 119.617462,496.902771 
	C106.490120,480.851990 97.890816,462.271881 90.911858,442.912567 
	C79.358696,410.864471 70.952393,377.994659 65.937180,344.296234 
	C62.783340,323.104797 59.499737,301.912781 57.199749,280.621094 
	C55.636261,266.147461 55.616604,251.503067 55.023140,236.930298 
	C54.715073,229.365662 52.882675,223.147827 47.158722,217.116440 
	C39.064499,208.587433 31.758709,198.854492 26.127573,188.538116 
	C14.251702,166.781204 9.532255,143.260406 11.854002,118.285759 
	C13.373661,101.939034 17.188532,86.427017 24.621655,71.821701 
	C32.497955,56.345589 42.589031,42.620724 56.026634,31.397202 
	C69.111549,20.468264 83.394196,11.834291 99.793747,6.919072 
	C106.516594,4.904120 113.263847,2.970576 120.000000,1.000000 
M256.354614,50.116508 
	C249.686249,47.721668 243.119812,44.975834 236.328705,43.003658 
	C221.297623,38.638523 206.081299,34.906811 191.072723,30.469627 
	C168.915421,23.918972 146.474274,20.862400 123.452652,24.016588 
	C102.354492,26.907242 84.032333,36.033016 68.395691,50.238911 
	C53.652111,63.633450 42.878723,79.858528 37.982868,99.335854 
	C35.585609,108.872932 33.769260,118.728539 33.285973,128.518753 
	C32.910191,136.131210 34.614090,143.941116 36.077183,151.531494 
	C40.186409,172.849701 50.768845,191.016556 66.534714,205.420395 
	C73.497108,211.781296 77.066795,218.171219 76.945503,226.962997 
	C76.638542,249.211731 78.052773,271.351898 81.022568,293.376343 
	C83.841660,314.283081 86.336578,335.276276 90.315681,355.973480 
	C95.732491,384.148956 102.813881,411.991241 113.141861,438.841339 
	C119.320168,454.903290 126.005463,470.963379 137.727264,483.854309 
	C145.983658,492.934174 151.996201,495.551392 158.149139,482.089142 
	C163.126007,471.199982 166.703018,459.565369 169.885880,447.982483 
	C178.222977,417.642487 183.598663,386.496765 194.894958,356.958832 
	C200.960312,341.098907 208.082932,325.917572 220.583542,313.912140 
	C244.032593,291.391998 279.616150,294.697845 299.924316,320.841125 
	C310.186096,334.051392 317.323212,349.051453 321.888641,364.927643 
	C330.494293,394.853455 337.740417,425.168457 346.175720,455.146057 
	C349.102356,465.546631 353.412476,475.641937 357.957214,485.476227 
	C361.521057,493.187988 367.095947,492.922485 372.757629,487.379303 
	C378.586243,481.672607 383.790314,474.966736 387.853210,467.886444 
	C399.443085,447.689056 406.471008,425.537659 412.662537,403.269958 
	C424.930847,359.146973 432.130066,314.052704 435.875916,268.441345 
	C437.177765,252.589798 437.581238,236.647797 437.851410,220.737869 
	C437.937469,215.667038 439.864624,212.316849 443.324280,209.123749 
	C447.435638,205.329132 451.570374,201.491760 455.187714,197.241211 
	C475.214935,173.707962 483.614838,146.318283 479.781616,115.811401 
	C476.287598,88.004433 463.388702,64.927330 441.528107,46.922703 
	C413.461517,23.806763 381.418976,18.568033 346.810272,25.728903 
	C331.339539,28.929939 316.172180,33.592613 300.856750,37.551804 
	C296.870667,38.582245 292.845551,39.461887 287.918274,40.628674 
	C290.705475,42.400036 292.470947,43.587250 294.296997,44.672569 
	C314.338501,56.584301 332.620422,70.709106 348.375732,87.955017 
	C351.280304,91.134399 354.324036,95.014503 352.497009,99.454384 
	C351.171173,102.676277 348.463806,106.561478 345.484528,107.597603 
	C340.339264,109.386993 335.268066,107.709251 331.316010,102.977295 
	C327.315613,98.187469 322.739685,93.825188 318.084381,89.644806 
	C299.867706,73.286613 279.305969,60.534462 256.354614,50.116508 
z"/>
<path fill="#47704C" opacity="1.000000" stroke="none" 
	d="
M119.531342,1.000000 
	C113.263847,2.970576 106.516594,4.904120 99.793747,6.919072 
	C83.394196,11.834291 69.111549,20.468264 56.026634,31.397202 
	C42.589031,42.620724 32.497955,56.345589 24.621655,71.821701 
	C17.188532,86.427017 13.373661,101.939034 11.854002,118.285759 
	C9.532255,143.260406 14.251702,166.781204 26.127573,188.538116 
	C31.758709,198.854492 39.064499,208.587433 47.158722,217.116440 
	C52.882675,223.147827 54.715073,229.365662 55.023140,236.930298 
	C55.616604,251.503067 55.636261,266.147461 57.199749,280.621094 
	C59.499737,301.912781 62.783340,323.104797 65.937180,344.296234 
	C70.952393,377.994659 79.358696,410.864471 90.911858,442.912567 
	C97.890816,462.271881 106.490120,480.851990 119.617462,496.902771 
	C125.419899,503.997375 132.515518,509.732452 141.803345,512.695801 
	C95.026642,513.000000 48.053288,513.000000 1.039966,513.000000 
	C1.039966,342.456726 1.039966,171.913467 1.039966,1.000000 
	C40.353455,1.000000 79.708069,1.000000 119.531342,1.000000 
z"/>
<path fill="#47704C" opacity="1.000000" stroke="none" 
	d="
M473.885254,47.042198 
	C468.014740,41.260670 462.144257,35.479137 456.048096,29.048679 
	C453.302734,25.664684 451.169495,22.371611 448.186371,20.305567 
	C440.996704,15.326106 433.409454,10.920729 425.982544,6.283823 
	C425.992554,5.855882 426.002563,5.427941 426.012573,5.000000 
	C455.008392,5.000000 484.004181,5.000000 513.000000,5.000000 
	C513.000000,172.687561 513.000000,340.375122 512.531372,508.531342 
	C472.233948,509.000000 432.405212,509.000000 392.576477,509.000000 
	C392.403717,508.385254 392.230957,507.770538 392.058167,507.155792 
	C394.468231,504.304718 396.991974,501.541321 399.269684,498.588165 
	C413.182220,480.550018 422.408630,460.032684 429.505188,438.647125 
	C450.853638,374.313416 461.427856,308.082947 462.940582,240.379456 
	C463.119904,232.354294 465.365753,226.064880 471.215454,219.952057 
	C495.481476,194.594620 507.394867,163.856888 506.788788,128.848175 
	C506.328033,102.231384 497.746002,77.844261 482.518463,55.936356 
	C481.289062,54.167656 479.090546,53.072559 477.342346,51.664459 
	C477.342346,51.664463 477.277557,51.667507 477.266785,51.267498 
	C476.132416,49.592392 475.008820,48.317291 473.885254,47.042198 
z"/>
<path fill="#47704C" opacity="1.000000" stroke="none" 
	d="
M157.468658,513.000000 
	C173.087418,506.734833 179.494583,492.563843 183.910858,477.816803 
	C191.281387,453.204834 196.947937,428.086395 204.104874,403.405334 
	C209.192917,385.858948 215.001190,368.469208 221.561020,351.422485 
	C225.172043,342.038696 231.120514,333.422607 239.477905,327.373505 
	C254.718674,316.342194 271.131256,320.449371 282.798828,335.684906 
	C295.608246,352.411438 301.547028,372.255035 306.978973,392.193268 
	C314.731445,420.649261 321.826752,449.292175 330.085205,477.597778 
	C332.620544,486.287628 337.227448,494.709259 342.454132,502.152344 
	C345.619568,506.659943 351.795197,509.053680 356.809204,512.698608 
	C290.645782,513.000000 224.291550,513.000000 157.468658,513.000000 
z"/>
<path fill="#47704C" opacity="1.000000" stroke="none" 
	d="
M477.529053,51.954540 
	C479.090546,53.072559 481.289062,54.167656 482.518463,55.936356 
	C497.746002,77.844261 506.328033,102.231384 506.788788,128.848175 
	C507.394867,163.856888 495.481476,194.594620 471.215454,219.952057 
	C465.365753,226.064880 463.119904,232.354294 462.940582,240.379456 
	C461.427856,308.082947 450.853638,374.313416 429.505188,438.647125 
	C422.408630,460.032684 413.182220,480.550018 399.269684,498.588165 
	C396.991974,501.541321 394.468231,504.304718 392.058167,507.155792 
	C392.230957,507.770538 392.403717,508.385254 392.576477,509.000000 
	C432.405212,509.000000 472.233948,509.000000 512.531372,509.000000 
	C513.000000,510.329315 513.000000,511.658600 513.000000,512.993958 
	C466.312439,513.000000 419.624878,513.000000 372.468658,513.000000 
	C390.353973,506.150757 400.365906,491.090942 408.974274,474.889618 
	C423.334381,447.863251 432.191284,418.794983 438.835724,389.118439 
	C444.228363,365.032837 448.704010,340.717926 452.766571,316.367950 
	C455.043060,302.723328 455.926086,288.820587 456.936707,274.997559 
	C457.950958,261.125854 458.318878,247.207458 459.021271,233.312119 
	C459.302032,227.758011 460.962006,223.101303 465.332733,218.972992 
	C484.866058,200.522995 496.394196,177.489487 500.803162,151.259201 
	C506.763367,115.800079 499.594818,82.985168 478.284241,53.620457 
	C478.000885,53.229965 477.901154,52.706196 477.529053,51.954540 
z"/>
<path fill="#47704C" opacity="1.000000" stroke="none" 
	d="
M356.531342,1.000000 
	C348.375275,2.814458 339.686676,4.372574 331.140045,6.500636 
	C316.611938,10.118057 302.213226,14.254674 287.687775,17.883404 
	C264.089935,23.778585 240.768082,22.672117 217.519318,15.383616 
	C203.247192,10.909297 188.686325,7.325818 174.173035,3.667982 
	C169.416229,2.469108 164.401184,2.294848 159.252121,1.326012 
	C224.687561,1.000000 290.375122,1.000000 356.531342,1.000000 
z"/>
<path fill="#47704C" opacity="1.000000" stroke="none" 
	d="
M513.000000,4.500000 
	C484.004181,5.000000 455.008392,5.000000 426.012573,5.000000 
	C426.002563,5.427941 425.992554,5.855882 425.982544,6.283823 
	C433.409454,10.920729 440.996704,15.326106 448.186371,20.305567 
	C451.169495,22.371611 453.302734,25.664684 455.890198,28.757364 
	C448.176727,24.167692 440.645386,18.757481 432.552246,14.387881 
	C421.939941,8.658156 410.533569,4.806069 398.552399,2.863343 
	C398.030792,2.778766 397.597046,2.152298 397.061188,1.389129 
	C434.500000,1.000000 472.000000,1.009170 509.499969,0.976537 
	C511.680817,0.974640 513.923157,0.561908 513.000000,4.500000 
z"/>
<path fill="#47704C" opacity="1.000000" stroke="none" 
	d="
M256.684113,50.312695 
	C279.305969,60.534462 299.867706,73.286613 318.084381,89.644806 
	C322.739685,93.825188 327.315613,98.187469 331.316010,102.977295 
	C335.268066,107.709251 340.339264,109.386993 345.484528,107.597603 
	C348.463806,106.561478 351.171173,102.676277 352.497009,99.454384 
	C354.324036,95.014503 351.280304,91.134399 348.375732,87.955017 
	C332.620422,70.709106 314.338501,56.584301 294.296997,44.672569 
	C292.470947,43.587250 290.705475,42.400036 287.918274,40.628674 
	C292.845551,39.461887 296.870667,38.582245 300.856750,37.551804 
	C316.172180,33.592613 331.339539,28.929939 346.810272,25.728903 
	C381.418976,18.568033 413.461517,23.806763 441.528107,46.922703 
	C463.388702,64.927330 476.287598,88.004433 479.781616,115.811401 
	C483.614838,146.318283 475.214935,173.707962 455.187714,197.241211 
	C451.570374,201.491760 447.435638,205.329132 443.324280,209.123749 
	C439.864624,212.316849 437.937469,215.667038 437.851410,220.737869 
	C437.581238,236.647797 437.177765,252.589798 435.875916,268.441345 
	C432.130066,314.052704 424.930847,359.146973 412.662537,403.269958 
	C406.471008,425.537659 399.443085,447.689056 387.853210,467.886444 
	C383.790314,474.966736 378.586243,481.672607 372.757629,487.379303 
	C367.095947,492.922485 361.521057,493.187988 357.957214,485.476227 
	C353.412476,475.641937 349.102356,465.546631 346.175720,455.146057 
	C337.740417,425.168457 330.494293,394.853455 321.888641,364.927643 
	C317.323212,349.051453 310.186096,334.051392 299.924316,320.841125 
	C279.616150,294.697845 244.032593,291.391998 220.583542,313.912140 
	C208.082932,325.917572 200.960312,341.098907 194.894958,356.958832 
	C183.598663,386.496765 178.222977,417.642487 169.885880,447.982483 
	C166.703018,459.565369 163.126007,471.199982 158.149139,482.089142 
	C151.996201,495.551392 145.983658,492.934174 137.727264,483.854309 
	C126.005463,470.963379 119.320168,454.903290 113.141861,438.841339 
	C102.813881,411.991241 95.732491,384.148956 90.315681,355.973480 
	C86.336578,335.276276 83.841660,314.283081 81.022568,293.376343 
	C78.052773,271.351898 76.638542,249.211731 76.945503,226.962997 
	C77.066795,218.171219 73.497108,211.781296 66.534714,205.420395 
	C50.768845,191.016556 40.186409,172.849701 36.077183,151.531494 
	C34.614090,143.941116 32.910191,136.131210 33.285973,128.518753 
	C33.769260,118.728539 35.585609,108.872932 37.982868,99.335854 
	C42.878723,79.858528 53.652111,63.633450 68.395691,50.238911 
	C84.032333,36.033016 102.354492,26.907242 123.452652,24.016588 
	C146.474274,20.862400 168.915421,23.918972 191.072723,30.469627 
	C206.081299,34.906811 221.297623,38.638523 236.328705,43.003658 
	C243.119812,44.975834 249.686249,47.721668 256.684113,50.312695 
z"/>
<path fill="#47704C" opacity="1.000000" stroke="none" 
	d="
M474.030945,47.330887 
	C475.008820,48.317291 476.132416,49.592392 477.270691,51.235306 
	C476.249115,50.275272 475.212860,48.947426 474.030945,47.330887 
z"/>
</svg>